<?xml version="1.0" encoding="utf-8"?>
<!-- Generator: Adobe Illustrator 25.2.1, SVG Export Plug-In . SVG Version: 6.00 Build 0)  -->
<svg version="1.1" id="Camada_1" xmlns="http://www.w3.org/2000/svg" xmlns:xlink="http://www.w3.org/1999/xlink" x="0px" y="0px"
	 viewBox="0 0 200 80" style="enable-background:new 0 0 200 80;" xml:space="preserve">
<path d="M94.68,57.62c0-0.51,0-0.93,0-1.36c0-10.54,0.02-21.07-0.03-31.61c0-1.1,0.28-1.51,1.4-1.63c2.03-0.22,4.03-0.65,6.2-1.01
	c0,3.97,0,7.86,0,11.81c1.55-0.23,2.94-0.58,4.35-0.62c1.69-0.05,3.42-0.04,5.06,0.28c3.18,0.62,4.85,2.38,5.06,5.61
	c0.25,3.64,0.38,7.32,0.14,10.95c-0.32,5.01-2.47,7.23-7.41,8.17C104.54,59.13,99.66,58.43,94.68,57.62z M102.33,52.29
	c1.3,0,2.47,0.1,3.63-0.02c2.36-0.25,3.21-1.19,3.28-3.56c0.06-1.83,0.03-3.66,0.03-5.48c-0.01-3.09-1.47-4.26-4.5-3.58
	c-0.59,0.13-1.2,0.3-1.71,0.61c-0.33,0.2-0.68,0.68-0.69,1.04C102.31,44.86,102.33,48.43,102.33,52.29z"/>
<path d="M175.82,47.32c0,3.17-0.06,6.33,0.03,9.5c0.04,1.24-0.38,1.55-1.56,1.5c-1.99-0.09-3.99-0.02-6.09-0.02
	c-0.03-0.56-0.08-0.98-0.08-1.4c0-10.75,0.01-21.51-0.02-32.26c0-1.02,0.24-1.45,1.32-1.58c2.07-0.24,4.11-0.65,6.34-1.02
	c0,7.34,0,14.58,0,21.82c0.1,0.04,0.21,0.08,0.31,0.11c0.25-0.37,0.51-0.73,0.74-1.1c1.77-2.79,3.57-5.57,5.29-8.4
	c0.47-0.78,1.01-1.05,1.89-1.03c2.25,0.05,4.5,0.02,6.99,0.02c-0.33,0.59-0.52,0.96-0.74,1.31c-2.09,3.31-4.17,6.63-6.3,9.92
	c-0.42,0.64-0.42,1.09-0.02,1.74c2.12,3.45,4.19,6.93,6.27,10.4c0.24,0.4,0.46,0.8,0.84,1.46c-2.81,0-5.36,0.04-7.91-0.04
	c-0.33-0.01-0.71-0.57-0.94-0.95c-2.04-3.34-4.04-6.69-6.06-10.04C176.03,47.27,175.92,47.29,175.82,47.32z"/>
<path d="M92.04,48.14c-4.68,0-9.25,0-13.79,0c-0.48,2.49,0.5,3.97,2.85,3.98c2.82,0.01,5.64-0.25,8.46-0.41
	c0.56-0.03,1.11-0.15,1.88-0.26c0,1.94,0.02,3.79-0.03,5.64c-0.01,0.23-0.38,0.61-0.63,0.66c-4.22,0.8-8.46,1.35-12.72,0.46
	c-4.49-0.94-6.99-3.53-7.45-8.08c-0.31-3.01-0.31-6.1-0.01-9.11c0.43-4.38,2.71-6.82,7.05-7.53c2.32-0.38,4.81-0.4,7.13-0.03
	c4.47,0.7,6.77,3.3,7.22,7.84C92.22,43.5,92.04,45.73,92.04,48.14z M84.38,42.92c0.11-1.42,0.15-2.72-1.1-3.59
	c-1.04-0.72-3.08-0.66-4.1,0.05c-0.95,0.66-1.3,1.99-0.91,3.54C80.25,42.92,82.23,42.92,84.38,42.92z"/>
<path d="M141.36,45.89c0,1.39,0.07,2.79-0.01,4.17c-0.24,4.07-2.72,7.04-6.69,7.99c-2.71,0.65-5.44,0.69-8.17,0.1
	c-4.32-0.93-6.77-3.44-7.17-7.82c-0.26-2.89-0.29-5.84-0.02-8.72c0.45-4.8,2.84-7.26,7.56-8.18c2.72-0.53,5.47-0.48,8.15,0.3
	c3.82,1.1,6.11,3.92,6.34,7.87C141.43,43.02,141.36,44.46,141.36,45.89z M133.76,45.86c0-1.13,0.02-2.26-0.01-3.39
	c-0.05-1.76-1.07-2.8-2.84-2.94c-2.37-0.19-3.84,0.55-3.97,2.37c-0.19,2.63-0.17,5.3,0,7.93c0.11,1.74,1.55,2.52,3.71,2.38
	c1.97-0.13,3.02-1.07,3.1-2.83C133.8,48.21,133.76,47.03,133.76,45.86z"/>
<path d="M143.75,45.82c0-1.57-0.17-3.15,0.03-4.69c0.56-4.22,2.93-6.68,7.13-7.61c2.72-0.6,5.46-0.58,8.16,0.07
	c3.84,0.93,6.21,3.36,6.61,7.3c0.31,3.06,0.39,6.18,0.11,9.24c-0.42,4.73-2.92,7.4-7.64,8.06c-2.54,0.35-5.24,0.25-7.76-0.23
	c-4.01-0.76-6.38-3.84-6.67-7.98c-0.09-1.39-0.02-2.78-0.02-4.18C143.72,45.82,143.74,45.82,143.75,45.82z M151.28,45.79
	c0,1.13-0.03,2.26,0.01,3.39c0.07,1.98,1.14,2.96,3.29,3.06c2.13,0.1,3.53-0.79,3.64-2.66c0.15-2.46,0.16-4.95,0-7.41
	c-0.13-1.97-1.49-2.78-3.9-2.65c-1.92,0.1-2.97,1.13-3.05,3.02C151.25,43.62,151.28,44.7,151.28,45.79z"/>
<path d="M38.92,44.12c-0.09-0.96,0.01-1.97-0.32-2.8c-0.22-0.55-1.02-1.16-1.63-1.23c-1.85-0.22-3.73-0.21-5.6-0.26
	c-1.08-0.03-2.17-0.01-3.34-0.01c0.19-1.98,0.33-3.83,0.57-5.67c0.04-0.27,0.55-0.68,0.84-0.68c3.61,0.07,7.24,0.01,10.83,0.38
	c3.78,0.39,5.89,2.58,6.02,6.38c0.2,5.95,0.05,11.92,0.05,17.99c-1.92,0-3.99,0-6.16,0c-0.1-0.38-0.22-0.82-0.31-1.12
	c-2.07,0.49-4.06,1.11-6.09,1.39c-2.73,0.38-5.29-0.19-6.95-2.63c-1.75-2.57-1.82-5.41-0.68-8.23c0.79-1.97,2.53-2.9,4.52-3.1
	C33.31,44.27,35.97,44.25,38.92,44.12z M39.03,49.44c-1.64,0-2.97-0.01-4.31,0.01c-0.82,0.01-1.46,0.33-1.53,1.25
	c-0.08,0.9-0.04,1.81,0.95,2.21c1.56,0.63,3.11,0.17,4.31-0.72C38.97,51.79,38.83,50.5,39.03,49.44z"/>
<path d="M12.73,58.21c0-6.18,0-12.21,0-18.38c-1.3,0-2.5,0-3.77,0c0-2.15,0-4.18,0-6.36c1.24,0,2.43,0,3.8,0c0-1.41,0-2.65,0-3.9
	c0.01-5.37,2.01-7.66,7.34-8.16c1.94-0.18,3.9-0.03,5.94-0.03c0,2.14,0,4.2,0,6.4c-1.22,0-2.39-0.03-3.56,0.01
	c-1.49,0.04-2.05,0.6-2.09,2.07c-0.03,0.96-0.01,1.91,0,2.87c0,0.17,0.03,0.34,0.07,0.68c1.85,0,3.7,0,5.7,0
	c-0.24,2.23-0.46,4.27-0.68,6.4c-1.71,0-3.31,0-5.05,0c0,6.16,0,12.23,0,18.39C17.84,58.21,15.38,58.21,12.73,58.21z"/>
<path d="M68.11,40.08c-2.6-0.19-5.1-0.48-7.61-0.54c-2.9-0.06-3.75,0.86-3.77,3.71c-0.01,1.83-0.02,3.66,0,5.49
	c0.03,2.46,0.83,3.4,3.26,3.41c2.12,0.01,4.25-0.26,6.37-0.43c0.56-0.04,1.11-0.16,1.84-0.26c0,1.97,0.02,3.83-0.03,5.68
	c-0.01,0.22-0.4,0.58-0.66,0.63c-3.78,0.77-7.57,1.32-11.39,0.33c-3.91-1.01-6.39-3.52-6.82-7.51c-0.33-3.14-0.33-6.37,0.01-9.5
	c0.46-4.27,3.32-6.87,7.87-7.71c3.67-0.67,7.28-0.12,10.93,0.71C68.11,36.14,68.11,38.15,68.11,40.08z"/>
</svg>
